<?xml version="1.0" standalone="no"?>
<!DOCTYPE svg PUBLIC "-//W3C//DTD SVG 20010904//EN"
 "http://www.w3.org/TR/2001/REC-SVG-20010904/DTD/svg10.dtd">
<svg version="1.0" xmlns="http://www.w3.org/2000/svg"
 width="520.000000pt" height="520.000000pt" viewBox="0 0 520.000000 520.000000"
 preserveAspectRatio="xMidYMid meet">
<metadata>
Created by potrace 1.11, written by Peter Selinger 2001-2013
</metadata>
<g transform="translate(0.000000,520.000000) scale(0.100000,-0.100000)"
fill="#000000" stroke="none">
<path d="M193 4139 c-40 -12 -99 -71 -106 -105 -9 -49 -1 -102 24 -151 13 -26
26 -50 29 -53 3 -3 13 -21 24 -40 47 -90 102 -191 137 -253 22 -38 39 -70 39
-72 0 -2 15 -30 34 -62 18 -32 49 -87 68 -123 42 -78 114 -210 145 -265 12
-22 32 -60 45 -85 13 -25 25 -47 28 -50 3 -3 17 -27 31 -55 14 -27 48 -90 76
-140 27 -49 69 -126 93 -170 23 -44 56 -104 72 -133 16 -29 103 -188 194 -355
91 -166 171 -308 176 -314 6 -7 7 -13 4 -13 -4 0 1 -12 12 -27 10 -16 38 -64
62 -108 23 -44 56 -105 73 -135 103 -187 218 -308 331 -347 172 -58 346 18
474 207 20 30 40 57 45 58 4 2 7 7 7 12 0 4 25 52 56 106 31 55 70 124 86 154
17 30 49 86 71 125 22 38 46 80 52 93 12 22 12 22 26 -10 7 -18 16 -35 19 -38
4 -3 13 -18 21 -35 120 -242 289 -516 356 -575 153 -137 335 -155 478 -46 106
80 150 142 342 486 78 140 146 260 150 265 4 6 23 39 42 75 18 36 40 73 49 83
8 9 11 17 7 17 -4 0 -2 8 6 18 8 9 22 31 31 48 9 17 85 151 167 299 83 148
151 272 151 277 0 4 3 8 8 8 4 0 12 10 18 23 15 33 91 170 151 274 29 51 53
94 53 96 0 2 23 44 51 93 29 49 65 114 82 144 16 30 47 84 67 120 21 36 51 90
68 120 16 30 67 120 112 200 78 136 83 149 83 205 1 69 -20 107 -76 141 -30
18 -56 19 -359 22 -213 2 -341 -1 -367 -8 -37 -10 -111 -71 -111 -91 0 -5 -34
-70 -75 -145 -41 -75 -75 -140 -75 -145 0 -4 -3 -9 -7 -11 -5 -1 -17 -21 -28
-43 -11 -22 -38 -74 -61 -115 -105 -194 -130 -238 -151 -275 -12 -22 -31 -58
-42 -80 -11 -22 -48 -89 -81 -150 -34 -60 -66 -122 -73 -137 -6 -16 -15 -28
-19 -28 -4 0 -8 -4 -8 -10 0 -5 -55 -110 -122 -232 -66 -123 -135 -249 -151
-280 l-31 -57 -43 82 c-24 45 -54 102 -66 127 -12 25 -24 47 -27 50 -3 3 -20
32 -36 65 -17 33 -42 80 -56 105 -14 25 -45 83 -70 130 -25 47 -58 110 -75
140 -16 30 -54 100 -83 155 -30 55 -73 136 -97 180 -24 44 -54 100 -66 125
-12 25 -25 47 -29 48 -5 2 -8 7 -8 11 0 7 -23 50 -160 306 -27 50 -61 114 -76
144 -37 71 -83 117 -131 130 -51 15 -630 15 -686 0 -80 -20 -119 -73 -118
-160 0 -42 12 -71 75 -184 45 -80 54 -97 128 -235 22 -41 48 -88 58 -105 10
-16 33 -59 52 -95 31 -56 72 -132 176 -320 13 -25 58 -107 99 -182 l75 -138
-20 -37 c-11 -21 -41 -76 -66 -123 -25 -47 -61 -113 -78 -148 -32 -62 -33 -63
-48 -41 -17 25 -138 249 -173 319 -12 25 -25 47 -29 48 -5 2 -8 7 -8 11 0 4
-25 54 -56 112 -31 57 -78 147 -106 199 -28 52 -63 118 -78 145 -15 28 -51 95
-80 150 -29 55 -56 105 -60 110 -4 6 -33 60 -65 120 -32 61 -86 162 -120 225
-34 63 -80 148 -101 189 -47 89 -82 127 -132 141 -46 12 -654 12 -699 -1z"/>
</g>
</svg>
